<svg width="7" height="10" viewBox="0 0 7 10" fill="none" xmlns="http://www.w3.org/2000/svg">
<path d="M1.46852 0.414348C1.14507 0.155591 0.673106 0.208032 0.414348 0.531479C0.155591 0.854925 0.208032 1.32689 0.531479 1.58565L1.46852 0.414348ZM6 5L6.46852 5.58565C6.64643 5.44332 6.75 5.22784 6.75 5C6.75 4.77216 6.64643 4.55668 6.46852 4.41435L6 5ZM0.531479 8.41435C0.208032 8.67311 0.155591 9.14508 0.414348 9.46852C0.673106 9.79197 1.14507 9.84441 1.46852 9.58565L0.531479 8.41435ZM0.531479 1.58565L5.53148 5.58565L6.46852 4.41435L1.46852 0.414348L0.531479 1.58565ZM5.53148 4.41435L0.531479 8.41435L1.46852 9.58565L6.46852 5.58565L5.53148 4.41435Z" fill="black"/>
</svg>
