<svg width="49" height="15" viewBox="0 0 49 15" fill="none" xmlns="http://www.w3.org/2000/svg">
<g clip-path="url(#clip0)">
<path fill-rule="evenodd" clip-rule="evenodd" d="M29.5815 1.92056C35.6176 1.1355 41.3386 1.05768 47.2793 2.10518C47.5512 2.15314 47.8105 1.97155 47.8585 1.6996C47.9064 1.42766 47.7249 1.16833 47.4529 1.12038C41.3898 0.0512779 35.5638 0.134082 29.4525 0.928917C23.4593 1.70841 17.5241 2.94093 11.9737 5.52475C9.59738 6.631 7.29928 7.93062 5.02129 9.21887L5.02113 9.21896C3.90823 9.84834 2.80013 10.475 1.69004 11.0751C1.69086 11.0704 1.69169 11.0657 1.69252 11.061L1.69392 11.0531L1.69531 11.0452L1.69671 11.0372L1.69811 11.0293L1.69951 11.0214L1.70091 11.0135L1.7023 11.0055L1.7037 10.9976L1.7051 10.9897L1.7065 10.9818L1.70789 10.9738L1.70929 10.9659L1.71069 10.958L1.71209 10.95L1.71349 10.9421L1.71488 10.9342L1.71628 10.9263L1.71768 10.9183L1.71908 10.9104L1.72048 10.9025L1.72187 10.8945L1.72327 10.8866L1.72467 10.8787L1.72607 10.8708L1.72746 10.8628L1.72886 10.8549L1.73026 10.847L1.73166 10.8391L1.73306 10.8311L1.73445 10.8232L1.73585 10.8153L1.73725 10.8073L1.73865 10.7994L1.74005 10.7915L1.74144 10.7836L1.74284 10.7756L1.74424 10.7677L1.74564 10.7598L1.74704 10.7518L1.74843 10.7439L1.74983 10.736L1.75123 10.7281L1.75263 10.7201L1.75402 10.7122L1.75542 10.7043L1.75682 10.6964L1.75822 10.6884L1.75962 10.6805L1.76101 10.6726L1.76241 10.6646L1.76381 10.6567L1.76521 10.6488L1.76661 10.6409L1.768 10.6329L1.7694 10.625L1.7708 10.6171L1.7722 10.6091L1.77359 10.6012L1.77499 10.5933L1.77639 10.5854L1.77779 10.5774L1.77919 10.5695L1.78058 10.5616L1.78198 10.5537L1.78338 10.5457L1.78478 10.5378L1.78618 10.5299L1.78757 10.5219L1.78897 10.514L1.79037 10.5061L1.79177 10.4982L1.79316 10.4902L1.79456 10.4823L1.79596 10.4744L1.79736 10.4664L1.79876 10.4585L1.80015 10.4506L1.80155 10.4427L1.80295 10.4347L1.80435 10.4268L1.80575 10.4189L1.80714 10.411L1.80854 10.403L1.80994 10.3951L1.81134 10.3872L1.81274 10.3792L1.81413 10.3713L1.81553 10.3634L1.81693 10.3555L1.81833 10.3475L1.81972 10.3396L1.82112 10.3317L1.82252 10.3237L1.82392 10.3158L1.82532 10.3079L1.82671 10.3L1.82811 10.292L1.82951 10.2841L1.83091 10.2762L1.83231 10.2683L1.8337 10.2603L1.8351 10.2524L1.8365 10.2445L1.8379 10.2365L1.83929 10.2286L1.84069 10.2207L1.84209 10.2128L1.84349 10.2048L1.84489 10.1969L1.84628 10.189L1.84768 10.1811L1.84908 10.1731L1.85048 10.1652L1.85188 10.1573L1.85327 10.1493L1.85467 10.1414L1.85607 10.1335L1.85747 10.1256L1.85886 10.1176L1.86026 10.1097L1.86166 10.1018L1.86306 10.0938L1.86446 10.0859L1.86585 10.078L1.86725 10.0701L1.86865 10.0621L1.87005 10.0542L1.87145 10.0463L1.87284 10.0384L1.87424 10.0304L1.87564 10.0225L1.87704 10.0146L1.87844 10.0066L1.87983 9.99871L1.88123 9.99079L1.88263 9.98286L1.88403 9.97493L1.88542 9.967L1.88682 9.95907L1.88822 9.95115L1.88962 9.94322L1.89102 9.93529L1.89241 9.92736L1.89381 9.91944L1.89521 9.91151L1.89661 9.90358L1.89801 9.89565L1.8994 9.88772L1.9008 9.8798L1.9022 9.87187L1.9036 9.86394L1.90499 9.85601L1.90639 9.84809L1.90779 9.84016L1.90919 9.83223L1.91059 9.8243L1.91198 9.81637L1.91338 9.80845L1.91478 9.80052L1.91618 9.79259L1.91758 9.78466L1.91897 9.77674L1.92037 9.76881L1.92177 9.76088L1.92317 9.75295L1.92457 9.74502L1.92596 9.7371L1.92736 9.72917L1.92876 9.72124L1.93016 9.71331L1.93155 9.70539L1.93295 9.69746L1.93435 9.68953L1.93575 9.6816L1.93715 9.67368L1.93854 9.66575L1.93994 9.65782L1.94134 9.64989L1.94274 9.64196L1.94414 9.63404L1.94553 9.62611L1.94693 9.61818L1.94833 9.61025L1.94973 9.60233L1.95112 9.5944L1.95252 9.58647L1.95392 9.57854L1.95532 9.57061L1.95672 9.56269L1.95811 9.55476L1.95951 9.54683L1.96091 9.5389L1.96231 9.53098L1.96371 9.52305L1.9651 9.51512L1.9665 9.50719L1.9679 9.49927L1.9693 9.49134L1.97069 9.48341L1.97209 9.47548L1.97349 9.46756L1.97489 9.45963L1.97629 9.4517L1.97768 9.44377L1.97908 9.43584L1.98048 9.42792L1.98188 9.41999L1.98328 9.41206L1.98467 9.40413L1.98607 9.39621L1.98747 9.38828L1.98887 9.38035L1.99027 9.37242L1.99166 9.36449L1.99306 9.35657L1.99446 9.34864L1.99586 9.34071L1.99725 9.33278L1.99865 9.32486L2.00005 9.31693L2.00145 9.309L2.00285 9.30107L2.00424 9.29314L2.00564 9.28522L2.00704 9.27729L2.00844 9.26936L2.00984 9.26143L2.01123 9.25351L2.01263 9.24558L2.01403 9.23765L2.01543 9.22972L2.01682 9.22179L2.01822 9.21387L2.01962 9.20594L2.02102 9.19801L2.02242 9.19008L2.02381 9.18216L2.02521 9.17423L2.02661 9.1663L2.02801 9.15837L2.02941 9.15044L2.0308 9.14252L2.0322 9.13459L2.0336 9.12666L2.035 9.11873L2.0364 9.11081L2.03779 9.10288L2.03919 9.09495L2.04059 9.08702L2.04199 9.0791L2.04338 9.07117L2.04478 9.06324L2.04618 9.05531L2.04758 9.04738L2.04898 9.03946L2.05037 9.03153L2.05177 9.0236L2.05317 9.01567L2.05457 9.00775L2.05597 8.99982L2.05736 8.99189L2.05876 8.98396L2.06016 8.97604L2.06156 8.96811L2.06295 8.96018L2.06435 8.95225L2.06575 8.94432L2.06715 8.9364L2.06855 8.92847L2.06994 8.92054L2.07134 8.91261L2.07274 8.90469L2.07414 8.89676L2.07554 8.88883L2.07693 8.8809L2.07833 8.87297L2.07973 8.86505L2.08113 8.85712L2.08252 8.84919L2.08392 8.84126L2.08532 8.83334L2.08672 8.82541L2.08812 8.81748L2.08951 8.80955L2.09091 8.80162L2.09231 8.7937L2.09371 8.78577L2.09511 8.77784L2.0965 8.76991L2.0979 8.76199L2.0993 8.75406L2.1007 8.74613L2.1021 8.7382L2.10349 8.73028L2.10489 8.72235L2.10629 8.71442L2.10769 8.70649L2.10908 8.69856L2.11048 8.69064L2.11188 8.68271L2.11328 8.67478L2.11468 8.66685L2.11607 8.65893L2.11747 8.651L2.11887 8.64307L2.12027 8.63514L2.12167 8.62721L2.12306 8.61929L2.12446 8.61136L2.12586 8.60343L2.12726 8.5955L2.12865 8.58758L2.13005 8.57965L2.13145 8.57172L2.13285 8.56379L2.13425 8.55586L2.13564 8.54794L2.13704 8.54001L2.13844 8.53208L2.13984 8.52415L2.14124 8.51623L2.14263 8.5083L2.14403 8.50037L2.14543 8.49244L2.14683 8.48452L2.14823 8.47659L2.14962 8.46866L2.15102 8.46073L2.15242 8.4528L2.15382 8.44488L2.15521 8.43695L2.15661 8.42902L2.15801 8.42109L2.15941 8.41317L2.16081 8.40524L2.1622 8.39731L2.1636 8.38938L2.165 8.38145L2.1664 8.37353L2.1678 8.3656L2.16919 8.35767L2.17059 8.34974L2.17199 8.34182L2.17339 8.33389L2.17478 8.32596L2.17618 8.31803L2.17758 8.31011L2.17898 8.30218L2.18038 8.29425L2.18177 8.28632L2.18317 8.27839L2.18457 8.27047L2.18597 8.26254L2.18737 8.25461L2.18876 8.24668L2.19016 8.23876L2.19156 8.23083L2.19296 8.2229L2.19435 8.21497L2.19575 8.20704L2.19715 8.19912L2.19855 8.19119L2.19995 8.18326L2.20134 8.17533L2.20274 8.16741L2.20414 8.15948L2.20554 8.15155L2.20694 8.14362L2.20833 8.13569L2.20973 8.12777L2.21113 8.11984L2.21253 8.11191L2.21393 8.10398L2.21532 8.09606L2.21672 8.08813L2.21812 8.0802L2.21952 8.07227L2.22091 8.06435L2.22231 8.05642L2.22371 8.04849L2.22511 8.04056L2.22651 8.03263L2.2279 8.02471L2.2293 8.01678L2.2307 8.00885L2.2321 8.00092L2.2335 7.993L2.23489 7.98507L2.23629 7.97714L2.23769 7.96921L2.23909 7.96129L2.24048 7.95336L2.24188 7.94543L2.24328 7.9375L2.24468 7.92957L2.24608 7.92165L2.24747 7.91372L2.24887 7.90579L2.25027 7.89786L2.25167 7.88994L2.25307 7.88201L2.25446 7.87408L2.25586 7.86615L2.25726 7.85822L2.25866 7.8503L2.26005 7.84237L2.26145 7.83444L2.26285 7.82651L2.26425 7.81859L2.26565 7.81066L2.26704 7.80273L2.26844 7.7948L2.26984 7.78687L2.27124 7.77895L2.27264 7.77102L2.27403 7.76309L2.27543 7.75516L2.27683 7.74724L2.27823 7.73931L2.27963 7.73138L2.28102 7.72345L2.28242 7.71552L2.28382 7.7076L2.28522 7.69967L2.28661 7.69174L2.28801 7.68381L2.28941 7.67589L2.29081 7.66796L2.29221 7.66003L2.2936 7.6521L2.295 7.64418L2.2964 7.63625L2.2978 7.62832L2.2992 7.62039L2.30059 7.61246L2.30199 7.60454L2.30339 7.59661L2.30479 7.58868L2.30618 7.58075L2.30758 7.57283L2.30898 7.5649L2.31038 7.55697L2.31178 7.54904L2.31317 7.54112L2.31457 7.53319L2.31597 7.52526L2.31737 7.51733L2.31877 7.5094L2.32016 7.50148L2.32156 7.49355L2.32296 7.48562L2.32436 7.47769L2.32575 7.46977L2.32715 7.46184L2.32855 7.45391L2.32995 7.44598L2.33135 7.43805L2.33274 7.43013L2.33414 7.4222L2.33554 7.41427L2.33694 7.40634L2.33834 7.39842L2.33973 7.39049L2.34113 7.38256L2.34253 7.37463L2.34393 7.3667L2.34533 7.35878L2.34672 7.35085L2.34812 7.34292L2.34952 7.33499L2.35092 7.32707L2.35231 7.31914L2.35371 7.31121L2.35511 7.30328L2.35651 7.29536L2.35791 7.28743L2.3593 7.2795L2.3607 7.27157L2.3621 7.26364L2.3635 7.25572L2.3649 7.24779L2.36629 7.23986L2.36769 7.23193L2.36909 7.22401L2.37049 7.21608L2.37188 7.20815L2.37328 7.20022L2.37468 7.19229L2.37608 7.18437L2.37748 7.17644L2.37887 7.16851L2.38027 7.16058L2.38167 7.15266L2.38307 7.14473L2.38447 7.1368L2.38586 7.12887L2.38726 7.12094L2.38866 7.11302L2.39006 7.10509L2.39145 7.09716L2.39285 7.08923L2.39425 7.08131L2.39565 7.07338L2.39705 7.06545L2.39844 7.05752L2.39984 7.04959L2.40124 7.04167L2.40264 7.03374L2.40404 7.02581L2.40543 7.01788L2.40683 7.00996L2.40823 7.00203C2.45618 6.73008 2.2746 6.47075 2.00265 6.4228C1.7307 6.37485 1.47137 6.55643 1.42342 6.82838L1.42202 6.83631L1.42063 6.84424L1.41923 6.85216L1.41783 6.86009L1.41643 6.86802L1.41503 6.87595L1.41364 6.88388L1.41224 6.8918L1.41084 6.89973L1.40944 6.90766L1.40805 6.91559L1.40665 6.92351L1.40525 6.93144L1.40385 6.93937L1.40245 6.9473L1.40106 6.95522L1.39966 6.96315L1.39826 6.97108L1.39686 6.97901L1.39546 6.98694L1.39407 6.99486L1.39267 7.00279L1.39127 7.01072L1.38987 7.01865L1.38847 7.02657L1.38708 7.0345L1.38568 7.04243L1.38428 7.05036L1.38288 7.05829L1.38149 7.06621L1.38009 7.07414L1.37869 7.08207L1.37729 7.09L1.37589 7.09792L1.3745 7.10585L1.3731 7.11378L1.3717 7.12171L1.3703 7.12963L1.3689 7.13756L1.36751 7.14549L1.36611 7.15342L1.36471 7.16135L1.36331 7.16927L1.36192 7.1772L1.36052 7.18513L1.35912 7.19306L1.35772 7.20098L1.35632 7.20891L1.35493 7.21684L1.35353 7.22477L1.35213 7.2327L1.35073 7.24062L1.34933 7.24855L1.34794 7.25648L1.34654 7.26441L1.34514 7.27233L1.34374 7.28026L1.34235 7.28819L1.34095 7.29612L1.33955 7.30404L1.33815 7.31197L1.33675 7.3199L1.33536 7.32783L1.33396 7.33576L1.33256 7.34368L1.33116 7.35161L1.32976 7.35954L1.32837 7.36747L1.32697 7.37539L1.32557 7.38332L1.32417 7.39125L1.32277 7.39918L1.32138 7.40711L1.31998 7.41503L1.31858 7.42296L1.31718 7.43089L1.31579 7.43882L1.31439 7.44674L1.31299 7.45467L1.31159 7.4626L1.31019 7.47053L1.3088 7.47846L1.3074 7.48638L1.306 7.49431L1.3046 7.50224L1.3032 7.51017L1.30181 7.51809L1.30041 7.52602L1.29901 7.53395L1.29761 7.54188L1.29622 7.54981L1.29482 7.55773L1.29342 7.56566L1.29202 7.57359L1.29062 7.58152L1.28923 7.58944L1.28783 7.59737L1.28643 7.6053L1.28503 7.61323L1.28363 7.62115L1.28224 7.62908L1.28084 7.63701L1.27944 7.64494L1.27804 7.65286L1.27665 7.66079L1.27525 7.66872L1.27385 7.67665L1.27245 7.68458L1.27105 7.6925L1.26966 7.70043L1.26826 7.70836L1.26686 7.71629L1.26546 7.72421L1.26406 7.73214L1.26267 7.74007L1.26127 7.748L1.25987 7.75593L1.25847 7.76385L1.25707 7.77178L1.25568 7.77971L1.25428 7.78764L1.25288 7.79556L1.25148 7.80349L1.25009 7.81142L1.24869 7.81935L1.24729 7.82728L1.24589 7.8352L1.24449 7.84313L1.2431 7.85106L1.2417 7.85899L1.2403 7.86691L1.2389 7.87484L1.2375 7.88277L1.23611 7.8907L1.23471 7.89863L1.23331 7.90655L1.23191 7.91448L1.23052 7.92241L1.22912 7.93034L1.22772 7.93826L1.22632 7.94619L1.22492 7.95412L1.22353 7.96205L1.22213 7.96997L1.22073 7.9779L1.21933 7.98583L1.21793 7.99376L1.21654 8.00169L1.21514 8.00961L1.21374 8.01754L1.21234 8.02547L1.21094 8.0334L1.20955 8.04132L1.20815 8.04925L1.20675 8.05718L1.20535 8.06511L1.20396 8.07303L1.20256 8.08096L1.20116 8.08889L1.19976 8.09682L1.19836 8.10475L1.19697 8.11267L1.19557 8.1206L1.19417 8.12853L1.19277 8.13646L1.19137 8.14438L1.18998 8.15231L1.18858 8.16024L1.18718 8.16817L1.18578 8.1761L1.18439 8.18402L1.18299 8.19195L1.18159 8.19988L1.18019 8.20781L1.17879 8.21573L1.1774 8.22366L1.176 8.23159L1.1746 8.23952L1.1732 8.24745L1.1718 8.25537L1.17041 8.2633L1.16901 8.27123L1.16761 8.27916L1.16621 8.28708L1.16482 8.29501L1.16342 8.30294L1.16202 8.31087L1.16062 8.31879L1.15922 8.32672L1.15783 8.33465L1.15643 8.34258L1.15503 8.35051L1.15363 8.35843L1.15223 8.36636L1.15084 8.37429L1.14944 8.38222L1.14804 8.39014L1.14664 8.39807L1.14524 8.406L1.14385 8.41393L1.14245 8.42186L1.14105 8.42978L1.13965 8.43771L1.13826 8.44564L1.13686 8.45357L1.13546 8.46149L1.13406 8.46942L1.13266 8.47735L1.13127 8.48528L1.12987 8.49321L1.12847 8.50113L1.12707 8.50906L1.12567 8.51699L1.12428 8.52492L1.12288 8.53284L1.12148 8.54077L1.12008 8.5487L1.11869 8.55663L1.11729 8.56456L1.11589 8.57248L1.11449 8.58041L1.11309 8.58834L1.1117 8.59627L1.1103 8.60419L1.1089 8.61212L1.1075 8.62005L1.1061 8.62798L1.10471 8.6359L1.10331 8.64383L1.10191 8.65176L1.10051 8.65969L1.09912 8.66761L1.09772 8.67554L1.09632 8.68347L1.09492 8.6914L1.09352 8.69933L1.09213 8.70725L1.09073 8.71518L1.08933 8.72311L1.08793 8.73104L1.08653 8.73896L1.08514 8.74689L1.08374 8.75482L1.08234 8.76275L1.08094 8.77068L1.07954 8.7786L1.07815 8.78653L1.07675 8.79446L1.07535 8.80239L1.07395 8.81031L1.07256 8.81824L1.07116 8.82617L1.06976 8.8341L1.06836 8.84203L1.06696 8.84995L1.06557 8.85788L1.06417 8.86581L1.06277 8.87374L1.06137 8.88166L1.05997 8.88959L1.05858 8.89752L1.05718 8.90545L1.05578 8.91338L1.05438 8.9213L1.05299 8.92923L1.05159 8.93716L1.05019 8.94509L1.04879 8.95301L1.04739 8.96094L1.046 8.96887L1.0446 8.9768L1.0432 8.98473L1.0418 8.99265L1.0404 9.00058L1.03901 9.00851L1.03761 9.01644L1.03621 9.02436L1.03481 9.03229L1.03341 9.04022L1.03202 9.04815L1.03062 9.05607L1.02922 9.064L1.02782 9.07193L1.02643 9.07986L1.02503 9.08778L1.02363 9.09571L1.02223 9.10364L1.02083 9.11157L1.01944 9.1195L1.01804 9.12742L1.01664 9.13535L1.01524 9.14328L1.01384 9.15121L1.01245 9.15913L1.01105 9.16706L1.00965 9.17499L1.00825 9.18292L1.00686 9.19085L1.00546 9.19877L1.00406 9.2067L1.00266 9.21463L1.00126 9.22256L0.999866 9.23048L0.998468 9.23841L0.99707 9.24634L0.995672 9.25427L0.994274 9.2622L0.992877 9.27012L0.991479 9.27805L0.990081 9.28598L0.988683 9.29391L0.987285 9.30183L0.985887 9.30976L0.984489 9.31769L0.983091 9.32562L0.981694 9.33354L0.980296 9.34147L0.978898 9.3494L0.9775 9.35733L0.976102 9.36526L0.974704 9.37318L0.973306 9.38111L0.971909 9.38904L0.970511 9.39697L0.969113 9.40489L0.967715 9.41282L0.966317 9.42075L0.964919 9.42868L0.963521 9.43661L0.962123 9.44453L0.960726 9.45246L0.959328 9.46039L0.95793 9.46832L0.956532 9.47624L0.955134 9.48417L0.953736 9.4921L0.952338 9.50003L0.95094 9.50796L0.949542 9.51588L0.948145 9.52381L0.946747 9.53174L0.945349 9.53967L0.943951 9.54759L0.942553 9.55552L0.941155 9.56345L0.939758 9.57138L0.93836 9.5793L0.936962 9.58723L0.935564 9.59516L0.934166 9.60309L0.932768 9.61102L0.93137 9.61894L0.929972 9.62687L0.928574 9.6348L0.927177 9.64273L0.925779 9.65065L0.924381 9.65858L0.922983 9.66651L0.921585 9.67444L0.920187 9.68237L0.918789 9.69029L0.917391 9.69822L0.915993 9.70615L0.914596 9.71408L0.913198 9.722L0.9118 9.72993L0.910402 9.73786L0.909004 9.74579L0.907606 9.75372L0.906209 9.76164L0.904811 9.76957L0.903413 9.7775L0.902015 9.78543L0.900617 9.79335L0.899219 9.80128L0.897821 9.80921L0.896423 9.81714L0.895025 9.82507L0.893628 9.83299L0.89223 9.84092L0.890832 9.84885L0.889434 9.85678L0.888036 9.8647L0.886638 9.87263L0.88524 9.88056L0.883842 9.88849L0.882445 9.89641L0.881047 9.90434L0.879649 9.91227L0.878251 9.9202L0.876853 9.92812L0.875455 9.93605L0.874057 9.94398L0.87266 9.95191L0.871262 9.95984L0.869864 9.96776L0.868466 9.97569L0.867068 9.98362L0.86567 9.99155L0.864272 9.99947L0.862874 10.0074L0.861477 10.0153L0.860079 10.0233L0.858681 10.0312L0.857283 10.0391L0.855885 10.047L0.854487 10.055L0.853089 10.0629L0.851691 10.0708L0.850293 10.0788L0.848896 10.0867L0.847498 10.0946L0.8461 10.1025L0.844702 10.1105L0.843304 10.1184L0.841906 10.1263L0.840509 10.1342L0.839111 10.1422L0.837713 10.1501L0.836315 10.158L0.834917 10.166L0.833519 10.1739L0.832121 10.1818L0.830723 10.1897L0.829325 10.1977L0.827928 10.2056L0.82653 10.2135L0.825132 10.2215L0.823734 10.2294L0.822336 10.2373L0.820938 10.2452L0.81954 10.2532L0.818142 10.2611L0.816744 10.269L0.815347 10.2769L0.813949 10.2849L0.812551 10.2928L0.811153 10.3007L0.809755 10.3087L0.808357 10.3166L0.80696 10.3245L0.805562 10.3324L0.804164 10.3404L0.802766 10.3483L0.801368 10.3562L0.79997 10.3642L0.798572 10.3721L0.797174 10.38L0.795776 10.3879L0.794379 10.3959L0.792981 10.4038L0.791583 10.4117L0.790185 10.4196L0.788787 10.4276L0.787389 10.4355L0.785991 10.4434L0.784593 10.4514L0.783196 10.4593L0.781798 10.4672L0.7804 10.4751L0.779002 10.4831L0.777604 10.491L0.776206 10.4989L0.774808 10.5069L0.773411 10.5148L0.772013 10.5227L0.770615 10.5306L0.769217 10.5386L0.767819 10.5465L0.766421 10.5544L0.765023 10.5623L0.763625 10.5703L0.762228 10.5782L0.76083 10.5861L0.759432 10.5941L0.758034 10.602L0.756636 10.6099L0.755238 10.6178L0.75384 10.6258L0.752442 10.6337L0.751044 10.6416L0.749647 10.6495L0.748249 10.6575L0.746851 10.6654L0.745453 10.6733L0.744055 10.6813L0.742657 10.6892L0.74126 10.6971L0.739862 10.705L0.738463 10.713L0.737066 10.7209L0.735668 10.7288L0.73427 10.7368L0.732872 10.7447L0.731474 10.7526L0.730076 10.7605L0.728679 10.7685L0.727281 10.7764L0.725883 10.7843L0.724485 10.7922L0.723087 10.8002L0.721689 10.8081L0.720291 10.816L0.718893 10.824L0.717495 10.8319L0.716098 10.8398L0.7147 10.8477L0.713302 10.8557L0.711904 10.8636L0.710506 10.8715L0.709108 10.8795L0.707711 10.8874C0.694754 10.9609 0.681875 11.032 0.669509 11.1003C0.632409 11.3053 0.599919 11.4848 0.583748 11.6253C0.564779 11.7901 0.541211 12.0671 0.698521 12.3057C0.86738 12.5617 1.14467 12.6302 1.30095 12.6621C1.41947 12.6863 1.57566 12.7065 1.7452 12.7285L1.74527 12.7285C1.81559 12.7377 1.8882 12.7471 1.96138 12.7572C2.95594 12.8949 3.93659 13.0803 4.93013 13.2682L4.93022 13.2682C5.43338 13.3633 5.93984 13.4591 6.4531 13.5496C6.72504 13.5975 6.98437 13.4159 7.03232 13.144C7.08028 12.8721 6.89869 12.6127 6.62674 12.5648C6.13996 12.4789 5.64685 12.3858 5.14999 12.2919L5.14927 12.2917L5.14916 12.2917C4.24859 12.1215 3.33571 11.949 2.42588 11.8137C3.48678 11.2366 4.52998 10.6464 5.5689 10.0586L5.56895 10.0586C7.81917 8.78543 10.0493 7.52365 12.3958 6.43133C17.8121 3.9099 23.6317 2.69441 29.5815 1.92056Z" fill="black"/>
</g>
<defs>
<clipPath id="clip0">
<rect width="49" height="15" fill="white"/>
</clipPath>
</defs>
</svg>
