<svg width="12" height="12" viewBox="0 0 12 12" fill="none" xmlns="http://www.w3.org/2000/svg">
<path d="M6.46852 1.41435C6.14507 1.15559 5.67311 1.20803 5.41435 1.53148C5.15559 1.85493 5.20803 2.32689 5.53148 2.58565L6.46852 1.41435ZM11 6L11.4685 6.58565C11.6464 6.44332 11.75 6.22784 11.75 6C11.75 5.77216 11.6464 5.55668 11.4685 5.41435L11 6ZM5.53148 9.41435C5.20803 9.67311 5.15559 10.1451 5.41435 10.4685C5.67311 10.792 6.14507 10.8444 6.46852 10.5857L5.53148 9.41435ZM5.53148 2.58565L10.5315 6.58565L11.4685 5.41435L6.46852 1.41435L5.53148 2.58565ZM10.5315 5.41435L5.53148 9.41435L6.46852 10.5857L11.4685 6.58565L10.5315 5.41435Z" fill="black"/>
<path d="M11 6H1" stroke="black" stroke-width="1.5" stroke-linecap="round" stroke-linejoin="round"/>
</svg>
