<svg width="12" height="12" viewBox="0 0 12 12" fill="none" xmlns="http://www.w3.org/2000/svg">
<path d="M6.6247 1.21913C6.19343 0.874122 5.56414 0.944043 5.21913 1.3753C4.87412 1.80657 4.94404 2.43586 5.3753 2.78087L6.6247 1.21913ZM11 6L11.6247 6.78087C11.8619 6.5911 12 6.30378 12 6C12 5.69622 11.8619 5.4089 11.6247 5.21913L11 6ZM5.3753 9.21913C4.94404 9.56414 4.87412 10.1934 5.21913 10.6247C5.56414 11.056 6.19343 11.1259 6.6247 10.7809L5.3753 9.21913ZM5.3753 2.78087L10.3753 6.78087L11.6247 5.21913L6.6247 1.21913L5.3753 2.78087ZM10.3753 5.21913L5.3753 9.21913L6.6247 10.7809L11.6247 6.78087L10.3753 5.21913Z" fill="black"/>
<path d="M11 6H1" stroke="black" stroke-width="2" stroke-linecap="round" stroke-linejoin="round"/>
</svg>
